# xmcd
#
# Track frame offsets:
#	150
#	12877
#	43588
#	56733
#	89116
#	103080
#	117574
#	130647
#	143311
#	157116
#	169867
#	182651
#	200161
#	213469
#	230182
#
# Disc length: 3691 seconds
#
# Revision: 1
# Processed by: cddbd v1.4b42PL1 Copyright (c) Steve Scherf et al.
# Submitted via: audiograbber 1.80
#
DISCID=de0e690f
DTITLE=Various Artist - Black and White Blues CD2
DYEAR=1900
DGENRE=
TTITLE0=Champion Jack Dupree - Gamblin Man Blues
TTITLE1=Rory Gallagher - Showbiz Blues
TTITLE2=Blind Boy Fuller and Sonny Terry - Blowing The Blues
TTITLE3=Snowy White - Looking For Somebody
TTITLE4=John Lee Hooker - Alberta
TTITLE5=Ken Hensley - Hellhound On My Trail
TTITLE6=Mitch Woods - Rocket 88
TTITLE7=Brownie McGhee - Step It Up And Go
TTITLE8=Torry Mc Phee - Drop Down Mama
TTITLE9=John Lee Williamson - Black Gal Blues
TTITLE10=Sonny Terry - Airplane Blues
TTITLE11=Savoy Brown - Sweet Loving Thing
TTITLE12=Bukka White - Special Streamline
TTITLE13=Alvin Lee - I Hear You Knockin
TTITLE14=Mick Taylor - You Shook Me
EXTD=
EXTT0=
EXTT1=
EXTT2=
EXTT3=
EXTT4=
EXTT5=
EXTT6=
EXTT7=
EXTT8=
EXTT9=
EXTT10=
EXTT11=
EXTT12=
EXTT13=
EXTT14=
PLAYORDER=
